<svg xmlns="http://www.w3.org/2000/svg" viewBox="0 0 100 100"><title>wam</title><path class="cls-1" d="M44 28.79a3.61 3.61 0 0 0-2.69-3.87c-2.19-.76-7.81-2.09-9.36.63a2.55 2.55 0 0 1 3.37-.4 4 4 0 0 1 1.62 3.51c.7 6.89-4.94 20.93-10.44 30.53-.64 1.09-1.21.73-1.18-.33a25.44 25.44 0 0 1 1.31-4.64c1.82-5.23 2.76-7.71 4.51-12.58.57-1.59 1-3 0-4.07a4.58 4.58 0 0 0-2.52-1.66 3.42 3.42 0 0 0-2.79 0 14.79 14.79 0 0 0-3.37 3.31c-1.62 2.22-3 4.2-4.37 6.36-.87 1.36-.67 1.32-5.18 9.17 0 0-.3.43-.2-.6a23.57 23.57 0 0 1 1.72-6.26 69.43 69.43 0 0 0 2.66-6.82c.94-3.31-2.39-5.63-4.71-6.62A5.81 5.81 0 0 0 9 34a1.55 1.55 0 0 1 1.75 1.85A46.82 46.82 0 0 1 8.19 44c-.91 3-1.72 5.53-2.52 8.51a17.28 17.28 0 0 0-.5 7.12 6.68 6.68 0 0 0 4.58 4.3c1.55.26 3.7-4.54 4.51-6 2.49-4.34 3.8-7.15 6.46-11.09a52.34 52.34 0 0 1 3.37-4.9 156.41 156.41 0 0 0-4.62 15.26 4.79 4.79 0 0 0 1.65 4.64 6.76 6.76 0 0 0 3.37 1.89 4.39 4.39 0 0 0 4.14-2.42 157.5 157.5 0 0 0 13.18-23.18A23.26 23.26 0 0 0 44 28.79zM90.24 35.71c-1.55-.26-3.7 4.54-4.51 6-2.49 4.34-3.8 7.15-6.46 11.09a54.29 54.29 0 0 1-3.37 4.9 154 154 0 0 0 4.65-15.3 4.75 4.75 0 0 0-1.41-4.34 6.76 6.76 0 0 0-3.37-1.89 4.39 4.39 0 0 0-4.17 2.38 173.91 173.91 0 0 0-9.09 14.9 22.26 22.26 0 0 1-4 5.1c-.64.56-2.22 1-2.62-.2a11.23 11.23 0 0 1 .84-4.77 115.07 115.07 0 0 1 6-12.42c.54-.93 2.12-3.15 1.45-4s-4.78-2.91-5.38-1.72c-.34.66-.84 1.52-1.28 2.32l-.27.46a7.25 7.25 0 0 0-4-3.08 6.82 6.82 0 0 0-6.16 1A18.56 18.56 0 0 0 44 39.06a29.67 29.67 0 0 0-6.09 10.73 14.28 14.28 0 0 0 .2 10.21 7 7 0 0 0 2.36 2.55 6.11 6.11 0 0 0 6.09-.36 42.35 42.35 0 0 0 6-9.3v.33c-2.76 9.07 1.41 9.93 3.06 9.93a5.92 5.92 0 0 0 3-1.59v.3a23.29 23.29 0 0 0-2.25 9.34A3.61 3.61 0 0 0 59 75.08c2.19.76 7.81 2.09 9.36-.63a2.55 2.55 0 0 1-3.37.4 4 4 0 0 1-1.62-3.51c-.71-6.89 4.88-20.93 10.43-30.53.64-1.09 1.21-.7 1.18.33a26.78 26.78 0 0 1-1.31 4.64c-1.82 5.23-2.76 7.71-4.51 12.58-.57 1.59-1 3 0 4.07a4.62 4.62 0 0 0 2.52 1.66 3.42 3.42 0 0 0 2.79 0 14.66 14.66 0 0 0 3.37-3.31c1.62-2.22 3-4.17 4.34-6.36.87-1.32.67-1.32 5.18-9.17 0 0 .3-.43.2.6a23.28 23.28 0 0 1-1.72 6.22 71 71 0 0 0-2.66 6.82c-.91 3.31 2.39 5.63 4.71 6.62a5.81 5.81 0 0 0 3.37.43 1.57 1.57 0 0 1-1.67-1.47 1.53 1.53 0 0 1 .05-.48 45.26 45.26 0 0 1 2.12-8.21c.91-3 1.72-5.53 2.52-8.51a17.31 17.31 0 0 0 .54-7.12 6.68 6.68 0 0 0-4.58-4.44zm-34.9 5.53c-.4 1.06-3.37 6.39-4.91 8.84-.87 1.42-2.89 4.47-4 6-.67.93-3 3.91-3.16 1.49A26 26 0 0 1 46.76 46a13.89 13.89 0 0 1 6.73-5.93c2.15-.38 2.22.21 1.85 1.17z"/></svg>